<svg version="1.1" id="Layer_1" xmlns="http://www.w3.org/2000/svg" x="0" y="0" viewBox="0 0 170 50"
    xml:space="preserve">
    <linearGradient id="SVGID_1_" gradientUnits="userSpaceOnUse" x1="2.16" y1="-2.42" x2="11.69"
        y2="34.35"><stop offset="0" stop-color="#049fda"/>
        <stop offset=".04" stop-color="#069fd7" />
        <stop offset=".68" stop-color="#26a6a2" />
        <stop offset="1" stop-color="#33a88d" /></linearGradient>
    <path
        d="M1.39 37.9c-.66 0-.99-.33-.99-.99V1.42c0-.66.33-.99.99-.99h1.57c.66 0 .99.33.99.99v13.14c.1-.03.58-.24 1.44-.63.85-.38 1.87-.72 3.04-1.02 1.17-.3 2.38-.45 3.64-.45 5.02 0 7.54 2.56 7.54 7.69V36.9c0 .66-.33.99-.99.99h-1.57c-.66 0-.99-.33-.99-.99V20.2c0-2.9-1.5-4.34-4.5-4.34-1.22 0-2.46.14-3.72.42-1.26.28-2.22.56-2.88.84l-.99.42v19.37c0 .66-.33.99-.99.99H1.39z"
        fill="url(#SVGID_1_)" />
    <path class="st1"
        d="M28.79 7.94c-.44.44-.97.65-1.6.65a2.2 2.2 0 0 1-2.25-2.25 2.2 2.2 0 0 1 2.25-2.25 2.2 2.2 0 0 1 2.25 2.25 2.2 2.2 0 0 1-.65 1.6zM26.4 37.9c-.66 0-.99-.33-.99-.99V13.77c0-.66.33-.99.99-.99h1.57c.66 0 .99.33.99.99v23.14c0 .66-.33.99-.99.99H26.4z"
        fill="#000000" />
    <linearGradient id="SVGID_00000093152719514613359890000007853480526065882538_"
        gradientUnits="userSpaceOnUse" x1="36.4" y1="7.43" x2="43.83" y2="34.29"><stop offset="0" stop-color="#049fda"/>
        <stop offset=".04" stop-color="#069fd7" />
        <stop offset=".68" stop-color="#26a6a2" />
        <stop offset="1" stop-color="#33a88d" /></linearGradient>
    <path
        d="M35.98 37.9c-.66 0-.99-.33-.99-.99V13.77c0-.66.33-.99.99-.99h1.57c.66 0 .99.33.99.99v1.68c2.06-1.78 4.19-2.67 6.39-2.67.77 0 1.47.18 2.09.52.63.35.94.8.94 1.36v1.83c0 .56-.28.84-.84.84-.28 0-.51-.07-.68-.21a5.15 5.15 0 0 0-2.72-1.05c-1.47 0-3.19.8-5.18 2.41V36.9c0 .66-.33.99-.99.99h-1.57z"
        fill="url(#SVGID_00000093152719514613359890000007853480526065882538_)" />
    <path class="st1" fill="#000000"
        d="M61.05 38.43c-3.8 0-6.68-1.19-8.64-3.56-1.95-2.37-2.93-5.55-2.93-9.53 0-3.94.97-7.11 2.91-9.5 1.94-2.39 4.65-3.59 8.14-3.59 3.07 0 5.43.87 7.09 2.62 1.66 1.75 2.49 4.19 2.49 7.33 0 1.26-.12 2.43-.37 3.51h-16.7c0 3.04.74 5.4 2.22 7.09 1.48 1.69 3.62 2.54 6.41 2.54.45 0 .91-.03 1.36-.08a8 8 0 0 0 1.31-.26l1.1-.34a17.76 17.76 0 0 0 1.83-.81l.68-.37c.28-.16.44-.25.47-.29.28-.17.54-.26.79-.26.49 0 .73.28.73.84v.79c0 .66-.33 1.2-.99 1.62a14.1 14.1 0 0 1-7.9 2.25zm-7.79-15.5H66.5c.07-.42.1-.99.1-1.73 0-1.78-.56-3.21-1.67-4.29a5.86 5.86 0 0 0-4.24-1.62c-4.22 0-6.7 2.55-7.43 7.64zM75.92 37.9c-.66 0-.99-.33-.99-.99V1.42c0-.66.33-.99.99-.99h1.57c.66 0 .99.33.99.99v35.49c0 .66-.33.99-.99.99h-1.57zM103.5 38.84c0 2.13-.32 3.93-.97 5.42a7.42 7.42 0 0 1-2.62 3.32c-1.1.73-2.21 1.25-3.32 1.54-1.12.3-2.32.44-3.61.44-1.43 0-2.84-.16-4.21-.47-1.38-.31-2.07-.73-2.07-1.26v-1.68c0-.52.26-.78.79-.78.14 0 .68.16 1.62.47 1.12.35 2.34.52 3.66.52 2.51 0 4.34-.58 5.47-1.73s1.7-3.23 1.7-6.23v-2.3c-.1.04-.58.24-1.44.63-.86.38-1.87.72-3.04 1.02-1.17.3-2.38.45-3.64.45-5.02 0-7.54-2.56-7.54-7.69V13.77c0-.66.33-.99.99-.99h1.57c.66 0 .99.33.99.99v16.7c0 2.9 1.5 4.34 4.5 4.34 1.22 0 2.46-.14 3.72-.42 1.26-.28 2.22-.56 2.88-.84l.99-.42V13.77c0-.66.33-.99.99-.99h1.57c.66 0 .99.33.99.99v25.07zM113.92 38.16a3.97 3.97 0 0 1-2.77-.99c-.73-.66-1.1-1.6-1.1-2.83V15.6h-1.94c-.66 0-.99-.33-.99-.99v-.84c0-.66.33-.99.99-.99h1.94V7.7c0-.66.33-.99.99-.99h1.57c.66 0 .99.33.99.99v5.08h3.93c.66 0 .99.33.99.99v.84c0 .66-.33.99-.99.99h-3.93v17.95c0 1.15.58 1.73 1.73 1.73.66 0 1.31-.1 1.94-.31.45-.17.73-.26.84-.26.42 0 .63.23.63.68v.63c0 .7-.24 1.15-.73 1.36a9.72 9.72 0 0 1-4.09.78zM126.03 7.94c-.44.44-.97.65-1.6.65a2.2 2.2 0 0 1-2.25-2.25 2.2 2.2 0 0 1 2.25-2.25 2.2 2.2 0 0 1 2.25 2.25c.01.63-.21 1.16-.65 1.6zm-2.38 29.96c-.66 0-.99-.33-.99-.99V13.77c0-.66.33-.99.99-.99h1.57c.66 0 .99.33.99.99v23.14c0 .66-.33.99-.99.99h-1.57zM142.44 38.43c-3.45 0-6.22-1.17-8.3-3.51-2.08-2.34-3.11-5.53-3.11-9.58s1.04-7.24 3.11-9.58c2.08-2.34 4.84-3.51 8.3-3.51 3.04 0 5.32.52 6.86 1.57.8.52 1.2 1.1 1.2 1.73v.94c0 .56-.24.84-.73.84-.24 0-.51-.09-.79-.26a11.62 11.62 0 0 0-6.18-1.73c-2.55 0-4.55.86-6.02 2.59-1.47 1.73-2.2 4.2-2.2 7.41s.73 5.68 2.2 7.41c1.47 1.73 3.47 2.59 6.02 2.59 2.23 0 4.29-.58 6.18-1.73.28-.17.54-.26.79-.26.49 0 .73.28.73.84v.94c0 .63-.4 1.2-1.2 1.73-1.57 1.04-3.86 1.57-6.86 1.57zM161.5 38.37c-2.76 0-5.02-.52-6.8-1.57-.8-.52-1.2-1.06-1.2-1.62v-1.2c0-.56.26-.84.78-.84.24 0 .49.07.73.21.03.04.21.14.52.31l.68.39c.14.09.39.22.76.39.37.18.69.31.97.39l1.02.29a11.73 11.73 0 0 0 2.59.32c1.26 0 2.33-.33 3.22-.99.89-.66 1.33-1.71 1.33-3.14 0-1.33-.38-2.36-1.15-3.11-.77-.75-2.11-1.33-4.03-1.75a10.68 10.68 0 0 1-4.82-2.38 5.99 5.99 0 0 1-1.99-4.74c0-2.13.71-3.84 2.15-5.13a7.6 7.6 0 0 1 5.29-1.94c2.27 0 4.27.52 6.02 1.57.8.49 1.2 1.05 1.2 1.68v1.2c0 .56-.26.84-.79.84-.21 0-.45-.09-.73-.26a5.93 5.93 0 0 1-.81-.58c-.4-.31-.76-.57-1.07-.76a6.16 6.16 0 0 0-1.41-.55 8.03 8.03 0 0 0-2.09-.26c-2.93 0-4.4 1.29-4.4 3.87 0 2.16 1.47 3.58 4.4 4.24 2.44.56 4.34 1.41 5.71 2.56 1.36 1.15 2.04 2.84 2.04 5.08 0 2.34-.78 4.17-2.33 5.5a8.66 8.66 0 0 1-5.79 1.98z" /></svg>