<svg xmlns="http://www.w3.org/2000/svg" xmlns:xlink="http://www.w3.org/1999/xlink" id="Layer_1"
    x="0px" y="0px" viewBox="18 18 48 48" xml:space="preserve">
    <path class="st0"
        d="M63.1,55.9c-2.1,0-3.1,2.6-1.6,4.1c0.3,0.3,0.3,0.7,0,1L60,62.5c-0.3,0.3-0.7,0.3-1,0c-1.5-1.5-3.9-0.4-3.9,1.7 c0,0.4-0.3,0.7-0.7,0.7h-2.1c-0.4,0-0.7-0.3-0.7-0.7c0-2.2-2.5-3.2-3.9-1.7c-0.3,0.3-0.7,0.3-1,0L45.2,61c-0.3-0.3-0.3-0.7,0-1 c1.5-1.5,0.4-4.1-1.6-4.1c-0.4,0-0.7-0.3-0.7-0.7V53c0-0.4,0.3-0.7,0.7-0.7c2.1,0,3.1-2.6,1.6-4.1c-0.3-0.3-0.3-0.7,0-1l1.5-1.5 c0.3-0.3,0.7-0.3,1,0c1.5,1.5,3.9,0.4,3.9-1.7c0-0.4,0.3-0.7,0.7-0.7h2.1c0.4,0,0.7,0.3,0.7,0.7c0,2.1,2.5,3.2,3.9,1.7 c0.3-0.3,0.7-0.3,1,0l1.5,1.5c0.3,0.3,0.3,0.7,0,1c-1.5,1.5-0.4,4.1,1.6,4.1c0.4,0,0.7,0.3,0.7,0.7v2.2 C63.7,55.6,63.4,55.9,63.1,55.9L63.1,55.9z M53.9,24.1c-0.2,0.3-0.6,0.4-0.9,0.3c-0.3-0.2-0.4-0.6-0.2-0.9l2.3-4.1 c0.2-0.3,0.6-0.4,0.9-0.3c0.3,0.2,0.4,0.6,0.2,0.9L53.9,24.1z M50.7,29.1l3.4,6.2c1.3-1.1,1.6-3,0.8-4.6 C54,29.1,52.3,28.5,50.7,29.1L50.7,29.1z M40.3,25.5l9.9,18c0.2-1,1-1.7,2-1.7h2.1c1.1,0,2,0.9,2,2.1c0,0.8,0.8,1.2,1.4,1 c-0.1-0.3-0.2-0.6-0.3-0.9L53,36l-3.4-6.1l-4.4-8c-0.8-1.5-2.7-2-4.1-1.1c-1.1,0.7-1.6,2-1.4,3.2c0.1,0.4,0.2,0.7,0.4,1L40.3,25.5z  M37,50.6c-0.6,0.2-1.2,0.5-1.8,0.7l3.3,4.7l0.6-0.4c0.5-0.4,0.5-1.2,0.2-1.8L37,50.6z M33.8,48.8l0.7,1.3c0.6-0.3,1.1-0.5,1.7-0.7 c2.6-1,5.1-1.8,7.5-2.3c0.1-0.3,0.3-0.7,0.5-0.9l1.5-1.5c0.8-0.8,2.1-0.8,2.8,0c0.3,0.3,0.6,0.4,1,0.3l-9.9-18 c-2.4,4.2-6.2,8.6-11,12.4L33.8,48.8z M29.6,53.6l-1,0.6c-0.1,0-0.1,0.1-0.2,0.1c-3,1.7-6.8,0.6-8.6-2.5c-1.8-3.2-0.7-7.3,2.3-9.1 l3.8-2.3l1.2-0.7l0.3,0.6l5,9v0.1l0.8,1.4l0.3,0.6L33,51.6L32.4,52L29.6,53.6z M40.8,61.4c0.4,0.6,0.3,1.3-0.2,1.8l-1.5,1.4 c-0.3,0.3-0.6,0.4-1,0.3c-0.4,0-0.7-0.2-0.9-0.5l-6.9-9.7l3.4-2.1l0.6-0.4l3.2,4.4L40.8,61.4z M59.8,36.2c-0.4,0-0.7-0.3-0.7-0.7 s0.3-0.7,0.7-0.7h4.5c0.4,0,0.7,0.3,0.7,0.7s-0.3,0.7-0.7,0.7H59.8z M59.4,28.7c-0.3,0.2-0.7,0.1-0.9-0.3s-0.1-0.8,0.2-0.9l3.7-2.2 c0.3-0.2,0.7-0.1,0.9,0.3c0.2,0.3,0.1,0.8-0.2,0.9L59.4,28.7z M53.3,48.7c-2.8,0-5.1,2.4-5.1,5.3s2.3,5.3,5.1,5.3s5.1-2.4,5.1-5.3 S56.1,48.7,53.3,48.7z"></path></svg>