<svg xmlns="http://www.w3.org/2000/svg" xmlns:xlink="http://www.w3.org/1999/xlink" id="Layer_1"
    x="0px" y="0px" viewBox="18 18 48 48" style="enable-background:new 0 0 84 84;"
    xml:space="preserve">
    <g id="Layer_93">	<path class="st0"
        d="M58.1,25.9h-2.3v-4.6c0-1.3-1-2.3-2.3-2.3s-2.3,1-2.3,2.3v4.6H32.8v-4.6c0-1.3-1-2.3-2.3-2.3s-2.3,1-2.3,2.3  v4.6h-2.3c-3.8,0-6.9,3.1-6.9,6.9v2.3h46v-2.3C65,29,61.9,25.9,58.1,25.9z"></path>
        <path class="st0"
            d="M19,39.7v18.4c0,3.8,3.1,6.9,6.9,6.9h32.2c3.8,0,6.9-3.1,6.9-6.9V39.7H19z M49.6,48.7l-9.2,9.2  c-0.3,0.1-0.5,0.2-0.7,0.2c-0.2,0-0.4-0.1-0.5-0.2l-4.6-4.6c-0.3-0.3-0.3-0.8,0-1.1s0.8-0.3,1.1,0l4.1,4.1l8.7-8.7  c0.3-0.3,0.8-0.3,1.1,0C49.9,47.9,49.9,48.4,49.6,48.7z"></path></g></svg>