<svg width="29" height="22" viewBox="0 0 29 22" fill="none" xmlns="http://www.w3.org/2000/svg">
    <path fill-rule="evenodd" clip-rule="evenodd"
        d="M0.826605 1.43936C0.308245 2.06124 0 2.84025 0 3.68576V18.3142C0 20.3499 1.78666 22 3.99063 22H24.9414C27.1455 22 28.9321 20.3499 28.9321 18.3142V3.68576C28.9321 2.69877 28.512 1.80239 27.8281 1.14079C27.7916 1.32123 27.6968 1.49127 27.5461 1.62025L16.8463 10.7779C15.4761 11.9506 13.4605 11.9662 12.0722 10.8149L0.996157 1.62879C0.928802 1.57293 0.872203 1.50891 0.826605 1.43936ZM2.18863 0.396283L13.1638 9.49869C13.9113 10.1187 14.9967 10.1102 15.7345 9.47876L26.4342 0.321155C26.4494 0.308192 26.4648 0.295852 26.4806 0.284131C26.007 0.101104 25.487 0 24.9414 0H3.99063C3.34222 0 2.72993 0.14283 2.18863 0.396283Z"
        fill="#049FDA" />
</svg>
