<svg width="20" height="27" viewBox="0 0 20 27" fill="none" xmlns="http://www.w3.org/2000/svg">
    <path
        d="M9.9858 0.458496C4.47114 0.458496 0 4.82406 0 10.2085C0 12.3287 0.711904 14.2742 1.89522 15.8676C1.91644 15.9057 1.91977 15.9484 1.9439 15.985L8.6011 25.735C8.90983 26.1871 9.42992 26.4585 9.9858 26.4585C10.5417 26.4585 11.0618 26.1871 11.3705 25.735L18.0277 15.985C18.0522 15.9484 18.0551 15.9057 18.0764 15.8676C19.2597 14.2742 19.9716 12.3287 19.9716 10.2085C19.9716 4.82406 15.5005 0.458496 9.9858 0.458496ZM9.9858 13.4585C8.14758 13.4585 6.6572 12.0033 6.6572 10.2085C6.6572 8.41368 8.14758 6.9585 9.9858 6.9585C11.824 6.9585 13.3144 8.41368 13.3144 10.2085C13.3144 12.0033 11.824 13.4585 9.9858 13.4585Z"
        fill="#049FDA" />
</svg>
