<svg xmlns="http://www.w3.org/2000/svg" viewBox="18 18 48 48" width="64" height="64">
    <path class="s1"
        d="m53.7 50.8c1.1 0 2-0.9 2-2v-4.3c0-1.1-0.9-2-2-2-1.1 0-2 0.9-2 2v4.3c0 1.1 0.9 2 2 2z"></path>
    <path class="s1"
        d="m19 60.1c0 2.7 2.2 4.8 4.9 4.9h36.3c2.7 0 4.8-2.2 4.9-4.9v-30.3h-46.1zm30.2-15.6c0-2.5 2-4.5 4.5-4.5 2.5 0 4.5 2 4.5 4.5v4.3c0 2.5-2 4.5-4.5 4.5-2.5 0-4.5-2-4.5-4.5zm-11.7-1.1c0-1.9 1.5-3.4 3.4-3.4h4.3c0.7 0 1.3 0.6 1.3 1.3 0 0.7-0.6 1.3-1.3 1.3h-4.3c-0.5 0-0.9 0.4-0.9 0.9v2h5.2c0.7 0 1.3 0.6 1.3 1.3 0 0.7-0.6 1.3-1.3 1.3h-5.2v2c0 0.5 0.4 0.9 0.9 0.9h4.3c0.7 0 1.3 0.6 1.3 1.3 0 0.7-0.6 1.3-1.3 1.3h-4.3c-1.9 0-3.4-1.5-3.4-3.4zm-6.7 4.5h-1.1c-2.2 0-4-1.8-4-4 0-2.2 1.8-4 4-4h1.6c1.9 0 3.4 1.5 3.4 3.4 0 0.7-0.6 1.3-1.3 1.3-0.7 0-1.3-0.6-1.3-1.3 0-0.5-0.4-0.9-0.9-0.9h-1.6c-0.8 0-1.4 0.6-1.4 1.4 0 0.8 0.6 1.4 1.4 1.4h1.1c2.2 0 4 1.8 4 4 0 2.2-1.8 4-4 4h-1.6c-1.9 0-3.4-1.5-3.4-3.4 0-0.7 0.6-1.3 1.3-1.3 0.7 0 1.3 0.6 1.3 1.3 0 0.5 0.4 0.9 0.9 0.9h1.6c0.8 0 1.4-0.6 1.4-1.4 0-0.8-0.6-1.4-1.4-1.4z"></path>
    <path class="s1"
        d="m60.1 19h-36.2c-2.7 0-4.8 2.2-4.9 4.9v4.9h46v-4.9c0-2.7-2.2-4.9-4.9-4.9zm-35.5 6.6c-0.6 0-1.1-0.5-1.1-1.1 0-0.6 0.5-1.1 1.1-1.1 0.6 0 1.1 0.5 1.1 1.1 0 0.6-0.5 1.1-1.1 1.1zm5.7 0c-0.6 0-1.1-0.5-1.1-1.1 0-0.6 0.5-1.1 1.1-1.1 0.6 0 1.1 0.5 1.1 1.1 0 0.6-0.5 1.1-1.1 1.1zm5.8 0c-0.6 0-1.1-0.5-1.1-1.1 0-0.6 0.5-1.1 1.1-1.1 0.6 0 1.1 0.5 1.1 1.1 0 0.6-0.5 1.1-1.1 1.1zm23 0h-5.8c-0.6 0-1.1-0.5-1.1-1.1 0-0.6 0.5-1.1 1.1-1.1h5.8c0.6 0 1.1 0.5 1.1 1.1 0 0.6-0.5 1.1-1.1 1.1z"></path>
</svg>