<svg width="28" height="23" viewBox="0 0 28 23" fill="none" xmlns="http://www.w3.org/2000/svg">
    <path
        d="M13.8657 0.458496C7.07366 0.458496 0.380371 3.11594 0.380371 6.16736C0.380371 8.78762 0.380371 9.02951 0.380371 9.04584C0.380371 9.73949 0.942434 10.3016 1.63608 10.3016H6.40872C7.10237 10.3016 7.66438 9.73949 7.66438 9.04584V6.87997C7.66438 6.24785 8.13479 5.71413 8.76164 5.63432C8.76164 5.63432 10.4799 5.28139 13.8657 5.28139C17.2514 5.28139 18.9696 5.63432 18.9696 5.63432C19.5966 5.71408 20.0669 6.24785 20.0669 6.87997V9.04589C20.0669 9.73954 20.629 10.3016 21.3226 10.3016H26.0952C26.7889 10.3016 27.3509 9.73954 27.3509 9.04589C27.3509 9.02951 27.3509 8.78762 27.3509 6.16741C27.351 3.11594 20.6577 0.458496 13.8657 0.458496Z"
        fill="#049FDA" />
    <path
        d="M18.7383 9.04608V6.94359L18.7021 6.93611C18.6891 6.93352 17.0401 6.61035 13.8657 6.61035C10.6913 6.61035 9.04238 6.93347 9.02595 6.93684L8.99318 6.94353V9.04608C8.99318 10.4714 7.83366 11.6305 6.40875 11.6305H3.08746V19.1102C3.08746 20.9597 4.58654 22.4587 6.43561 22.4587H21.2958C23.1448 22.4587 24.6439 20.9596 24.6439 19.1102V11.6305H21.3226C19.8977 11.6305 18.7383 10.4714 18.7383 9.04608ZM17.8195 17.364V19.1508H16.033V17.364H17.8195ZM17.8195 14.5384V16.3253H16.033V14.5384H17.8195ZM17.8195 11.7133V13.4997H16.033V11.7133H17.8195ZM14.7591 17.364V19.1508H12.9727V17.364H14.7591ZM14.7591 14.5384V16.3253H12.9727V14.5384H14.7591ZM12.9727 13.4997V11.7133H14.7591V13.4997H12.9727ZM11.6987 17.364V19.1508H9.91229V17.364H11.6987ZM11.6987 14.5384V16.3253H9.91229V14.5384H11.6987ZM11.6987 11.7133V13.4997H9.91229V11.7133H11.6987Z"
        fill="#049FDA" />
</svg>
